<mxfile host="app.diagrams.net" agent="Mozilla/5.0 (Macintosh; Intel Mac OS X 10_15_7) AppleWebKit/537.36 (KHTML, like Gecko) Chrome/136.0.0.0 Safari/537.36" version="27.1.4">
  <diagram name="Page-1" id="Ba21_aPN4TUSwIyfDCxY">
    <mxGraphModel dx="1273" dy="819" grid="1" gridSize="10" guides="1" tooltips="1" connect="1" arrows="1" fold="1" page="1" pageScale="1" pageWidth="850" pageHeight="1100" math="0" shadow="0">
      <root>
        <mxCell id="0" />
        <mxCell id="1" parent="0" />
        <mxCell id="FOetEBb1pY8jTggAEUdp-41" style="edgeStyle=orthogonalEdgeStyle;rounded=0;orthogonalLoop=1;jettySize=auto;html=1;exitX=0.5;exitY=1;exitDx=0;exitDy=0;entryX=0.5;entryY=0;entryDx=0;entryDy=0;" edge="1" parent="1" source="FOetEBb1pY8jTggAEUdp-1" target="FOetEBb1pY8jTggAEUdp-40">
          <mxGeometry relative="1" as="geometry" />
        </mxCell>
        <mxCell id="FOetEBb1pY8jTggAEUdp-1" value="Our previous newsletters" style="rounded=0;whiteSpace=wrap;html=1;" vertex="1" parent="1">
          <mxGeometry x="360" y="40" width="160" height="40" as="geometry" />
        </mxCell>
        <mxCell id="FOetEBb1pY8jTggAEUdp-14" style="edgeStyle=orthogonalEdgeStyle;rounded=0;orthogonalLoop=1;jettySize=auto;html=1;exitX=1;exitY=0.25;exitDx=0;exitDy=0;entryX=0;entryY=0.75;entryDx=0;entryDy=0;" edge="1" parent="1" source="FOetEBb1pY8jTggAEUdp-3" target="FOetEBb1pY8jTggAEUdp-8">
          <mxGeometry relative="1" as="geometry" />
        </mxCell>
        <mxCell id="FOetEBb1pY8jTggAEUdp-16" value="Links / content" style="edgeLabel;html=1;align=center;verticalAlign=middle;resizable=0;points=[];" vertex="1" connectable="0" parent="FOetEBb1pY8jTggAEUdp-14">
          <mxGeometry x="-0.1429" y="-1" relative="1" as="geometry">
            <mxPoint as="offset" />
          </mxGeometry>
        </mxCell>
        <mxCell id="FOetEBb1pY8jTggAEUdp-27" value="chooses" style="edgeStyle=orthogonalEdgeStyle;rounded=0;orthogonalLoop=1;jettySize=auto;html=1;exitX=1.002;exitY=0.909;exitDx=0;exitDy=0;entryX=0;entryY=0.75;entryDx=0;entryDy=0;dashed=1;exitPerimeter=0;" edge="1" parent="1" source="FOetEBb1pY8jTggAEUdp-3" target="FOetEBb1pY8jTggAEUdp-21">
          <mxGeometry relative="1" as="geometry">
            <Array as="points">
              <mxPoint x="430" y="345" />
              <mxPoint x="430" y="305" />
            </Array>
          </mxGeometry>
        </mxCell>
        <mxCell id="FOetEBb1pY8jTggAEUdp-3" value="Human" style="rounded=0;whiteSpace=wrap;html=1;" vertex="1" parent="1">
          <mxGeometry x="30" y="290" width="120" height="60" as="geometry" />
        </mxCell>
        <mxCell id="FOetEBb1pY8jTggAEUdp-15" value="Substack API" style="edgeStyle=orthogonalEdgeStyle;rounded=0;orthogonalLoop=1;jettySize=auto;html=1;exitX=0.25;exitY=1;exitDx=0;exitDy=0;entryX=0;entryY=0.5;entryDx=0;entryDy=0;" edge="1" parent="1" source="FOetEBb1pY8jTggAEUdp-5" target="FOetEBb1pY8jTggAEUdp-8">
          <mxGeometry relative="1" as="geometry" />
        </mxCell>
        <mxCell id="FOetEBb1pY8jTggAEUdp-5" value="Reference newsletters" style="rounded=0;whiteSpace=wrap;html=1;" vertex="1" parent="1">
          <mxGeometry x="180" y="140" width="160" height="40" as="geometry" />
        </mxCell>
        <mxCell id="FOetEBb1pY8jTggAEUdp-24" style="edgeStyle=orthogonalEdgeStyle;rounded=0;orthogonalLoop=1;jettySize=auto;html=1;exitX=1;exitY=0.75;exitDx=0;exitDy=0;entryX=0;entryY=0.75;entryDx=0;entryDy=0;jumpStyle=none;curved=1;" edge="1" parent="1" source="FOetEBb1pY8jTggAEUdp-8" target="FOetEBb1pY8jTggAEUdp-21">
          <mxGeometry relative="1" as="geometry" />
        </mxCell>
        <mxCell id="FOetEBb1pY8jTggAEUdp-8" value="List of possible topics (just titles)" style="rounded=0;whiteSpace=wrap;html=1;" vertex="1" parent="1">
          <mxGeometry x="270" y="260" width="120" height="60" as="geometry" />
        </mxCell>
        <mxCell id="FOetEBb1pY8jTggAEUdp-21" value="4-5 topics&lt;br&gt;&lt;font style=&quot;font-size: 10px;&quot;&gt;(title + content)&lt;/font&gt;" style="rounded=0;whiteSpace=wrap;html=1;" vertex="1" parent="1">
          <mxGeometry x="480" y="260" width="120" height="60" as="geometry" />
        </mxCell>
        <mxCell id="FOetEBb1pY8jTggAEUdp-42" style="edgeStyle=orthogonalEdgeStyle;rounded=0;orthogonalLoop=1;jettySize=auto;html=1;exitX=0.5;exitY=1;exitDx=0;exitDy=0;" edge="1" parent="1" source="FOetEBb1pY8jTggAEUdp-39">
          <mxGeometry relative="1" as="geometry">
            <mxPoint x="540" y="140" as="targetPoint" />
          </mxGeometry>
        </mxCell>
        <mxCell id="FOetEBb1pY8jTggAEUdp-43" value="Examples" style="edgeLabel;html=1;align=center;verticalAlign=middle;resizable=0;points=[];" vertex="1" connectable="0" parent="FOetEBb1pY8jTggAEUdp-42">
          <mxGeometry x="0.6238" y="-1" relative="1" as="geometry">
            <mxPoint as="offset" />
          </mxGeometry>
        </mxCell>
        <mxCell id="FOetEBb1pY8jTggAEUdp-39" value="Structure of newsletters we like" style="rounded=0;whiteSpace=wrap;html=1;" vertex="1" parent="1">
          <mxGeometry x="560" y="40" width="160" height="40" as="geometry" />
        </mxCell>
        <mxCell id="FOetEBb1pY8jTggAEUdp-40" value="System prompt" style="rounded=0;whiteSpace=wrap;html=1;" vertex="1" parent="1">
          <mxGeometry x="485" y="140" width="110" height="40" as="geometry" />
        </mxCell>
      </root>
    </mxGraphModel>
  </diagram>
</mxfile>
